<svg width="96" height="96" viewBox="0 0 139 150" fill="none" xmlns="http://www.w3.org/2000/svg">
  <g clip-path="url(#clip0_350_245)">
    <path
      d="M138.684 108.512C137.91 105.071 135.715 102.106 132.66 100.371L108.736 86.7492C103.257 83.6258 96.3146 85.1441 92.5854 90.2487C87.9382 96.6258 82.5595 99.4746 75.1297 99.4746C63.3253 99.4746 55.3935 89.6414 55.3935 74.9928V74.6168C55.3935 62.6434 62.1778 50.5109 75.1297 50.5109C82.2583 50.5109 87.3501 53.1138 91.61 58.9559C95.4397 64.1907 102.468 65.6801 107.976 62.4265L131.957 48.2695C134.941 46.5053 137.092 43.5409 137.824 40.1138C138.57 36.701 137.853 33.1004 135.859 30.2372C122.161 10.455 101.349 0 75.7178 0C55.1066 0 36.0158 7.59182 21.9738 21.3873C7.8027 35.2984 0 54.343 0 74.9928V75.3687C0 96.38 7.88876 115.569 22.2176 129.394C35.9871 142.668 54.3751 149.986 74.0109 149.986C101.22 149.986 122.333 139.371 136.791 118.432C138.785 115.555 139.473 111.94 138.699 108.512H138.684ZM127.482 36.1805C127.956 36.8746 127.898 37.5687 127.827 37.9157C127.755 38.2628 127.511 38.928 126.794 39.3473L102.812 53.5043C101.851 54.0827 100.589 53.779 99.8717 52.8246C93.7328 44.4375 85.4138 40.1716 75.1297 40.1716C66.4664 40.1716 58.6494 43.9024 53.1272 50.6555C50.402 53.9815 48.3366 57.9292 46.9883 62.2674C44.3492 49.195 45.1811 35.6743 50.0578 25.8267C55.164 15.5307 63.7842 10.3249 75.7034 10.3249C97.835 10.3249 115.75 19.2615 127.482 36.166V36.1805ZM42.1403 18.9289C41.71 19.6809 41.3084 20.4329 40.9068 21.2282C35.8437 31.4374 34.0795 44.7267 35.9441 58.6523C37.7513 72.2019 42.8001 85.1586 50.1725 95.1364C51.1048 96.7705 52.1519 98.3033 53.328 99.706C56.2684 103.22 59.8829 105.881 63.9277 107.587C51.779 110.667 38.8844 109.944 28.5143 104.97C20.1809 100.964 10.2554 92.519 10.2554 75.0072C10.2554 50.4386 22.7483 29.9046 42.1403 18.9434V18.9289ZM128.372 112.533C115.778 130.782 97.9928 139.661 74.0109 139.661C51.8363 139.661 32.975 129.365 21.6582 113.024C22.4615 113.458 23.2647 113.892 24.1109 114.297C31.6841 117.926 40.3474 119.691 49.2259 119.691C64.6448 119.691 80.7236 114.398 92.8722 104.478C95.7983 102.396 98.4661 99.706 100.89 96.3945C101.55 95.4835 102.769 95.2232 103.73 95.7727L127.655 109.395C128.4 109.814 128.644 110.479 128.716 110.841C128.802 111.188 128.859 111.882 128.386 112.561L128.372 112.533Z"
      fill="#5904EC"/>
  </g>
  <defs>
    <clipPath id="clip0_350_245">
      <rect width="139" height="150" fill="white"/>
    </clipPath>
  </defs>
</svg>
